<svg xmlns="http://www.w3.org/2000/svg" width="273" height="22">
	<style>
		path { fill:none; stroke:yellow; stroke-width:5; display:inline; }
	</style>
	<g transform="translate(-21,-20) scale(0.26)">
		<path d="M 88.13581,159.19667 88.009541,83.940309 176.52416,159.19667" />
		<path d="m 224.38014,160.7119 0.12626,-75.76144 46.21448,0.126269 0.25254,75.508901 42.0476,0.12627" />
		<path d="m 360.49819,158.94413 10.66973,-80.244028 8.90198,80.370228 66.03872,0.12627" />
		<path d="m 498.00521,158.94413 9.72272,-75.130091 8.58629,75.256361 12.87945,0.12627 c 17.85344,-107.034424 35.86327,-83.290584 55.05332,-0.3788" />
		<path d="m 636.0173,158.94413 c 1.96972,-42.05874 15.92178,-67.622324 43.81537,-73.99367 l 0.12627,75.5089 36.87056,-0.25253" />
		<path d="m 858.37713,159.0704 c -2.32809,-3.91688 -4.65617,-7.28021 -6.98426,-2.27285 -3.44272,9.67386 -4.87431,5.93632 -7.65506,-2.77791 -2.63054,-16.99435 -4.9352,-9.87328 -7.23679,-2.52538 -4.74425,20.02492 -6.01227,7.69302 -7.5288,-2.52538 -2.76662,-22.83917 -5.77657,-18.183 -8.87829,-3.15673 -3.99244,29.40507 -5.94945,12.24958 -8.03387,-2.65165 -2.13039,-41.31197 -5.25812,-21.78588 -8.37322,-3.03046 -3.77855,31.24718 -6.53319,27.42791 -8.53895,-3.15672 -1.99685,-49.450305 -4.87549,-30.41438 -7.86813,-2.52538 -2.4108,39.32039 -5.2179,33.16863 -8.28641,-2.90419 -3.03851,-45.196732 -5.75557,-47.480556 -8.12068,-2.77792 l -1.89404,30.43084" />
		<path d="m 912.29402,155.66114 c 3.51527,11.97445 6.19667,5.32574 8.71257,-5.0192 3.24397,-21.63181 6.43305,-34.81207 9.34391,-5.14546 2.58424,21.60313 5.28719,25.04446 8.20748,-4.76666 3.07661,-36.49194 6.23441,-61.739992 9.97526,-6.23454 5.67187,46.11012 5.91142,27.99613 8.79148,-0.15784 2.29665,-25.77253 4.41553,-59.870566 8.66522,5.82417 1.8661,21.0429 4.02237,36.02654 8.8704,4.95606 2.1279,-15.77131 4.28672,-30.99968 9.37548,5.2086 2.45831,9.8678 4.91905,19.71345 10.00683,5.58741" />
		<path d="m 1133.6437,157.80771 c -1.571,0.43067 -2.5441,11.02522 -5.0192,-3.91434 -1.2911,-12.30443 -5.1993,-6.41187 -5.4927,-3.53554 -4.2212,22.33769 -5.2422,6.98265 -6.5344,-5.17703 -4.395,-24.28574 -5.6074,-13.20886 -7.0711,-4.9245 -3.3612,34.34241 -5.5119,23.1726 -7.1973,-5.4927 -4.2222,-49.004247 -5.5755,-23.77361 -7.1973,-5.4927 -4.6997,48.87526 -6.95,37.18103 -7.955,-5.3033 -2.7516,-46.230932 -5.5032,-49.375509 -8.2548,0 -3.3095,55.04197 -5.9531,44.38552 -8.2548,0 -3.3177,-51.204383 -5.825,-44.667155 -7.7972,0 -1.939,42.00734 -4.5226,56.84892 -8.8073,0 -2.3981,-37.709805 -5.1194,-57.06377 -9.1861,0 l -1.7677,35.22907" />
	</g>
</svg>
